<svg xmlns="http://www.w3.org/2000/svg" xmlns:xlink="http://www.w3.org/1999/xlink" width="500" zoomAndPan="magnify" viewBox="0 0 375 374.999991" height="500" preserveAspectRatio="xMidYMid meet" version="1.0"><defs><clipPath id="b35052f03c"><path d="M 8.03125 100.3125 L 347 100.3125 L 347 269 L 8.03125 269 Z M 8.03125 100.3125 " clip-rule="nonzero"/></clipPath><clipPath id="2690c8013e"><path d="M 57.613281 0 L 317.113281 0 L 317.113281 370 L 57.613281 370 Z M 57.613281 0 " clip-rule="nonzero"/></clipPath><clipPath id="c02aada88b"><path d="M 187 0 L 317.113281 0 L 317.113281 370 L 187 370 Z M 187 0 " clip-rule="nonzero"/></clipPath></defs><path fill="#ffa41a" d="M 353.214844 145.441406 L 330.648438 145.441406 C 321.511719 145.441406 314.078125 152.875 314.078125 162.015625 C 314.078125 171.152344 321.511719 178.585938 330.648438 178.585938 L 353.214844 178.585938 C 362.355469 178.585938 369.789062 171.152344 369.789062 162.015625 C 369.789062 152.875 362.355469 145.441406 353.214844 145.441406 Z M 353.214844 168.007812 L 330.648438 168.007812 C 327.34375 168.007812 324.65625 165.320312 324.65625 162.015625 C 324.65625 158.707031 327.34375 156.019531 330.648438 156.019531 L 353.214844 156.019531 C 356.523438 156.019531 359.210938 158.707031 359.210938 162.015625 C 359.210938 165.320312 356.523438 168.007812 353.214844 168.007812 Z M 353.214844 168.007812 " fill-opacity="1" fill-rule="nonzero"/><g clip-path="url(#b35052f03c)"><path fill="#ffa41a" d="M 246.734375 235.710938 L 230.832031 235.710938 C 227.503906 235.710938 224.675781 233.148438 224.527344 230.007812 C 224.449219 228.347656 225.035156 226.773438 226.175781 225.582031 C 227.320312 224.378906 228.859375 223.71875 230.515625 223.71875 L 294.683594 223.71875 C 303.824219 223.71875 311.257812 216.285156 311.257812 207.144531 C 311.257812 198.011719 303.824219 190.578125 294.683594 190.578125 L 249.167969 190.578125 C 245.839844 190.578125 243.011719 188.019531 242.863281 184.878906 C 242.785156 183.214844 243.371094 181.640625 244.511719 180.441406 C 245.65625 179.246094 247.195312 178.585938 248.847656 178.585938 L 272.828125 178.585938 C 281.960938 178.585938 289.394531 171.152344 289.394531 162.015625 C 289.394531 152.875 281.960938 145.441406 272.828125 145.441406 L 221.667969 145.441406 C 218.335938 145.441406 215.507812 142.886719 215.359375 139.746094 C 215.28125 138.082031 215.867188 136.507812 217.007812 135.3125 C 218.152344 134.113281 219.691406 133.457031 221.347656 133.457031 L 329.945312 133.457031 C 334.453125 133.457031 338.824219 131.582031 341.9375 128.324219 C 345.09375 125.011719 346.710938 120.667969 346.5 116.085938 C 346.082031 107.242188 338.671875 100.308594 329.625 100.308594 L 121.738281 100.308594 C 118.820312 100.308594 116.449219 102.679688 116.449219 105.597656 C 116.449219 108.519531 118.820312 110.886719 121.738281 110.886719 L 329.625 110.886719 C 332.957031 110.886719 335.785156 113.449219 335.929688 116.585938 C 336.011719 118.246094 335.425781 119.824219 334.28125 121.019531 C 333.140625 122.214844 331.601562 122.878906 329.945312 122.878906 L 221.347656 122.878906 C 216.839844 122.878906 212.46875 124.746094 209.355469 128.011719 C 206.199219 131.320312 204.578125 135.664062 204.792969 140.242188 C 205.210938 149.089844 212.621094 156.023438 221.667969 156.023438 L 272.828125 156.023438 C 276.128906 156.023438 278.816406 158.710938 278.816406 162.015625 C 278.816406 165.320312 276.128906 168.007812 272.828125 168.007812 L 248.847656 168.007812 C 244.339844 168.007812 239.96875 169.882812 236.859375 173.144531 C 233.699219 176.453125 232.082031 180.796875 232.296875 185.375 C 232.710938 194.222656 240.121094 201.15625 249.167969 201.15625 L 294.683594 201.15625 C 297.988281 201.15625 300.679688 203.84375 300.679688 207.148438 C 300.679688 210.453125 297.988281 213.144531 294.683594 213.144531 L 230.515625 213.144531 C 226.003906 213.144531 221.636719 215.011719 218.523438 218.277344 C 215.363281 221.582031 213.746094 225.929688 213.960938 230.507812 C 214.375 239.355469 221.789062 246.289062 230.832031 246.289062 L 246.734375 246.289062 C 250.039062 246.289062 252.726562 248.976562 252.726562 252.28125 C 252.726562 255.589844 250.039062 258.273438 246.734375 258.273438 L 26.175781 258.273438 C 22.394531 258.273438 19.3125 255.191406 19.3125 251.410156 L 19.3125 142.621094 L 145.894531 142.621094 C 148.8125 142.621094 151.183594 140.253906 151.183594 137.332031 C 151.183594 134.414062 148.8125 132.042969 145.894531 132.042969 L 19.3125 132.042969 L 19.3125 117.753906 C 19.3125 113.96875 22.394531 110.886719 26.175781 110.886719 L 100.582031 110.886719 C 103.503906 110.886719 105.871094 108.519531 105.871094 105.597656 C 105.871094 102.679688 103.503906 100.308594 100.582031 100.308594 L 26.175781 100.308594 C 16.558594 100.308594 8.734375 108.136719 8.734375 117.753906 L 8.734375 251.40625 C 8.734375 261.027344 16.558594 268.847656 26.175781 268.847656 L 246.734375 268.847656 C 255.871094 268.847656 263.304688 261.414062 263.304688 252.277344 C 263.304688 243.140625 255.871094 235.710938 246.734375 235.710938 Z M 246.734375 235.710938 " fill-opacity="1" fill-rule="nonzero"/></g><path fill="#ffa41a" d="M 315.136719 235.710938 L 295.390625 235.710938 C 286.25 235.710938 278.816406 243.140625 278.816406 252.28125 C 278.816406 261.414062 286.25 268.847656 295.390625 268.847656 L 315.136719 268.847656 C 324.273438 268.847656 331.707031 261.414062 331.707031 252.28125 C 331.707031 243.140625 324.273438 235.710938 315.136719 235.710938 Z M 315.136719 258.269531 L 295.390625 258.269531 C 292.085938 258.269531 289.394531 255.582031 289.394531 252.28125 C 289.394531 248.976562 292.085938 246.289062 295.390625 246.289062 L 315.136719 246.289062 C 318.441406 246.289062 321.128906 248.976562 321.128906 252.28125 C 321.128906 255.582031 318.441406 258.269531 315.136719 258.269531 Z M 315.136719 258.269531 " fill-opacity="1" fill-rule="nonzero"/><path fill="#ffa41a" d="M 191.023438 142.621094 C 193.945312 142.621094 196.3125 140.253906 196.3125 137.332031 C 196.3125 134.414062 193.945312 132.042969 191.023438 132.042969 L 167.75 132.042969 C 164.832031 132.042969 162.460938 134.414062 162.460938 137.332031 C 162.460938 140.253906 164.832031 142.621094 167.75 142.621094 Z M 191.023438 142.621094 " fill-opacity="1" fill-rule="nonzero"/><path fill="#ffa41a" d="M 36.941406 122.523438 C 36.941406 125.058594 34.890625 127.113281 32.359375 127.113281 C 29.828125 127.113281 27.773438 125.058594 27.773438 122.523438 C 27.773438 119.992188 29.828125 117.941406 32.359375 117.941406 C 34.890625 117.941406 36.941406 119.992188 36.941406 122.523438 Z M 36.941406 122.523438 " fill-opacity="1" fill-rule="nonzero"/><path fill="#ffa41a" d="M 53.863281 122.523438 C 53.863281 125.058594 51.8125 127.113281 49.28125 127.113281 C 46.75 127.113281 44.699219 125.058594 44.699219 122.523438 C 44.699219 119.992188 46.75 117.941406 49.28125 117.941406 C 51.8125 117.941406 53.863281 119.992188 53.863281 122.523438 Z M 53.863281 122.523438 " fill-opacity="1" fill-rule="nonzero"/><path fill="#ffa41a" d="M 70.789062 122.523438 C 70.789062 125.058594 68.734375 127.113281 66.207031 127.113281 C 63.675781 127.113281 61.621094 125.058594 61.621094 122.523438 C 61.621094 119.992188 63.675781 117.941406 66.207031 117.941406 C 68.734375 117.941406 70.789062 119.992188 70.789062 122.523438 Z M 70.789062 122.523438 " fill-opacity="1" fill-rule="nonzero"/><path fill="#ffa41a" d="M 49.847656 162.15625 C 47.785156 160.089844 44.433594 160.089844 42.367188 162.15625 L 27.207031 177.320312 C 25.140625 179.382812 25.140625 182.730469 27.207031 184.792969 L 43.074219 200.660156 C 44.105469 201.695312 45.460938 202.214844 46.8125 202.214844 C 48.164062 202.214844 49.519531 201.695312 50.550781 200.660156 C 52.617188 198.59375 52.617188 195.246094 50.550781 193.1875 L 38.425781 181.054688 L 49.847656 169.632812 C 51.914062 167.566406 51.914062 164.21875 49.847656 162.15625 Z M 49.847656 162.15625 " fill-opacity="1" fill-rule="nonzero"/><path fill="#ffa41a" d="M 86.089844 200.660156 C 87.125 201.695312 88.476562 202.214844 89.828125 202.214844 C 91.183594 202.214844 92.535156 201.695312 93.570312 200.660156 L 109.4375 184.792969 C 111.5 182.730469 111.5 179.378906 109.4375 177.320312 L 94.273438 162.15625 C 92.210938 160.089844 88.859375 160.089844 86.796875 162.15625 C 84.730469 164.21875 84.730469 167.566406 86.796875 169.632812 L 98.21875 181.054688 L 86.089844 193.1875 C 84.023438 195.246094 84.023438 198.59375 86.089844 200.660156 Z M 86.089844 200.660156 " fill-opacity="1" fill-rule="nonzero"/><path fill="#ffa41a" d="M 60.558594 201.859375 C 62.414062 201.859375 64.214844 200.882812 65.183594 199.144531 L 82.105469 168.824219 C 83.53125 166.273438 82.617188 163.050781 80.066406 161.628906 C 77.515625 160.207031 74.292969 161.117188 72.871094 163.667969 L 55.949219 193.996094 C 54.523438 196.542969 55.433594 199.761719 57.984375 201.1875 C 58.800781 201.644531 59.6875 201.859375 60.558594 201.859375 Z M 60.558594 201.859375 " fill-opacity="1" fill-rule="nonzero"/><path fill="#ffa41a" d="M 126.144531 195.511719 L 171.984375 195.511719 C 174.902344 195.511719 177.273438 193.140625 177.273438 190.222656 C 177.273438 187.300781 174.902344 184.933594 171.984375 184.933594 L 126.144531 184.933594 C 123.226562 184.933594 120.855469 187.300781 120.855469 190.222656 C 120.855469 193.140625 123.226562 195.511719 126.144531 195.511719 Z M 126.144531 195.511719 " fill-opacity="1" fill-rule="nonzero"/><path fill="#ffa41a" d="M 126.144531 170.828125 L 131.789062 170.828125 C 134.710938 170.828125 137.078125 168.460938 137.078125 165.539062 C 137.078125 162.621094 134.710938 160.25 131.789062 160.25 L 126.144531 160.25 C 123.226562 160.25 120.855469 162.621094 120.855469 165.539062 C 120.855469 168.460938 123.226562 170.828125 126.144531 170.828125 Z M 126.144531 170.828125 " fill-opacity="1" fill-rule="nonzero"/><path fill="#ffa41a" d="M 216.761719 190.222656 C 216.761719 187.300781 214.394531 184.933594 211.472656 184.933594 L 189.613281 184.933594 C 186.691406 184.933594 184.324219 187.300781 184.324219 190.222656 C 184.324219 193.140625 186.691406 195.511719 189.613281 195.511719 L 211.472656 195.511719 C 214.394531 195.511719 216.761719 193.140625 216.761719 190.222656 Z M 216.761719 190.222656 " fill-opacity="1" fill-rule="nonzero"/><path fill="#ffa41a" d="M 136.371094 216.316406 C 136.371094 213.394531 134.003906 211.027344 131.082031 211.027344 L 46.460938 211.027344 C 43.542969 211.027344 41.171875 213.394531 41.171875 216.316406 C 41.171875 219.234375 43.542969 221.605469 46.460938 221.605469 L 131.082031 221.605469 C 134.003906 221.605469 136.371094 219.234375 136.371094 216.316406 Z M 136.371094 216.316406 " fill-opacity="1" fill-rule="nonzero"/><path fill="#ffa41a" d="M 189.613281 211.027344 L 149.417969 211.027344 C 146.496094 211.027344 144.128906 213.394531 144.128906 216.316406 C 144.128906 219.234375 146.496094 221.605469 149.417969 221.605469 L 189.613281 221.605469 C 192.53125 221.605469 194.902344 219.234375 194.902344 216.316406 C 194.902344 213.394531 192.53125 211.027344 189.613281 211.027344 Z M 189.613281 211.027344 " fill-opacity="1" fill-rule="nonzero"/><path fill="#ffa41a" d="M 46.460938 234.296875 C 43.542969 234.296875 41.171875 236.664062 41.171875 239.585938 C 41.171875 242.503906 43.542969 244.875 46.460938 244.875 L 73.964844 244.875 C 76.882812 244.875 79.253906 242.503906 79.253906 239.585938 C 79.253906 236.664062 76.882812 234.296875 73.964844 234.296875 Z M 46.460938 234.296875 " fill-opacity="1" fill-rule="nonzero"/><path fill="#ffa41a" d="M 90.179688 234.296875 C 87.261719 234.296875 84.890625 236.664062 84.890625 239.585938 C 84.890625 242.503906 87.261719 244.875 90.179688 244.875 L 105.695312 244.875 C 108.617188 244.875 110.984375 242.503906 110.984375 239.585938 C 110.984375 236.664062 108.617188 234.296875 105.695312 234.296875 Z M 90.179688 234.296875 " fill-opacity="1" fill-rule="nonzero"/><path fill="#ffa41a" d="M 119.800781 244.875 L 189.613281 244.875 C 192.53125 244.875 194.902344 242.503906 194.902344 239.585938 C 194.902344 236.664062 192.53125 234.296875 189.613281 234.296875 L 119.800781 234.296875 C 116.878906 234.296875 114.511719 236.664062 114.511719 239.585938 C 114.511719 242.503906 116.878906 244.875 119.800781 244.875 Z M 119.800781 244.875 " fill-opacity="1" fill-rule="nonzero"/><path fill="#ffa41a" d="M 142.71875 166.246094 C 142.71875 169.164062 145.085938 171.535156 148.007812 171.535156 L 191.023438 171.535156 C 193.945312 171.535156 196.3125 169.164062 196.3125 166.246094 C 196.3125 163.324219 193.945312 160.957031 191.023438 160.957031 L 148.007812 160.957031 C 145.085938 160.957031 142.71875 163.324219 142.71875 166.246094 Z M 142.71875 166.246094 " fill-opacity="1" fill-rule="nonzero"/><g clip-path="url(#2690c8013e)"><path fill="#737373" d="M 148.445312 369.460938 L 60.398438 357.136719 L 79.082031 230.929688 L 63.773438 230.929688 L 57.613281 204.097656 L 83.253906 204.097656 L 83.253906 216.820312 L 107.105469 216.820312 L 107.105469 204.097656 L 124.601562 204.097656 L 140.503906 91.203125 L 115.652344 74.496094 L 115.652344 18.050781 L 139.109375 12.289062 L 139.109375 27.394531 L 166.335938 20.441406 L 166.335938 5.328125 L 187.601562 -0.0351562 L 208.675781 5.328125 L 208.675781 20.433594 L 235.902344 27.390625 L 235.902344 12.289062 L 259.359375 18.050781 L 259.359375 74.496094 L 234.515625 91.195312 L 250.417969 204.089844 L 268.105469 204.089844 L 268.105469 216.8125 L 291.757812 216.8125 L 291.757812 204.089844 L 317.398438 204.089844 L 311.238281 230.921875 L 296.132812 230.921875 L 314.613281 357.136719 L 226.566406 369.460938 L 226.566406 324.148438 C 226.566406 302.679688 209.070312 284.992188 187.609375 284.992188 C 166.140625 284.992188 148.453125 302.679688 148.453125 324.148438 L 148.453125 369.460938 Z M 148.445312 369.460938 " fill-opacity="1" fill-rule="evenodd"/></g><path fill="#ffbd59" d="M 187.601562 375.027344 L 156.992188 370.65625 L 156.992188 324.148438 C 156.992188 307.253906 170.703125 293.535156 187.601562 293.535156 C 204.300781 293.535156 218.214844 307.246094 218.214844 324.148438 L 218.214844 370.65625 Z M 187.601562 375.027344 " fill-opacity="1" fill-rule="evenodd"/><path fill="#ffa41a" d="M 187.601562 293.535156 C 204.300781 293.535156 218.214844 307.246094 218.214844 324.148438 L 218.214844 370.65625 L 187.601562 375.027344 Z M 187.601562 293.535156 " fill-opacity="1" fill-rule="evenodd"/><g clip-path="url(#c02aada88b)"><path fill="#545454" d="M 226.566406 369.460938 L 314.613281 357.136719 L 296.132812 230.929688 L 311.238281 230.929688 L 317.398438 204.097656 L 291.757812 204.097656 L 291.757812 216.820312 L 268.101562 216.820312 L 268.101562 204.097656 L 250.410156 204.097656 L 234.507812 91.203125 L 259.351562 74.503906 L 259.351562 18.050781 L 235.898438 12.289062 L 235.898438 27.394531 L 208.667969 20.441406 L 208.667969 5.328125 L 187.601562 -0.0351562 L 187.601562 284.992188 C 209.070312 284.992188 226.558594 302.679688 226.558594 324.148438 L 226.558594 369.460938 Z M 226.566406 369.460938 " fill-opacity="1" fill-rule="evenodd"/></g><path fill="#ffffff" d="M 166.335938 38.519531 L 166.335938 55.820312 L 139.109375 62.578125 L 139.109375 45.28125 Z M 166.335938 38.519531 " fill-opacity="1" fill-rule="evenodd"/><path fill="#ffffff" d="M 208.675781 38.519531 L 208.675781 55.820312 L 235.902344 62.578125 L 235.902344 45.28125 Z M 208.675781 38.519531 " fill-opacity="1" fill-rule="evenodd"/><path fill="#ffffff" d="M 159.78125 135.324219 C 152.429688 135.324219 146.464844 141.289062 146.464844 148.640625 L 146.464844 174.277344 L 173.101562 168.121094 L 173.101562 148.640625 C 173.097656 141.28125 167.132812 135.324219 159.78125 135.324219 Z M 159.78125 135.324219 " fill-opacity="1" fill-rule="evenodd"/><path fill="#ffffff" d="M 215.230469 135.324219 C 222.582031 135.324219 228.546875 141.289062 228.546875 148.640625 L 228.546875 174.277344 L 201.910156 168.121094 L 201.910156 148.640625 C 201.914062 141.28125 207.878906 135.324219 215.230469 135.324219 Z M 215.230469 135.324219 " fill-opacity="1" fill-rule="evenodd"/></svg>